# xmcd
#
# Track frame offsets: 
#        150
#        15864
#        30114
#        44319
#        61717
#        79096
#        93458
#        111194
#        128329
#        153828
#        168356
#        186956
#
# Disc length: 2832 seconds
#
# Revision: 0
# Processed by: cddbd v1.5.2PL0 Copyright (c) Steve Scherf et al.
# Submitted via: ExactAudioCopy v0.90b4
#
DISCID=7a0b0e0c
DTITLE=Blues Orbiters - Falling Leaves
DYEAR=2005
DGENRE=Left Coast Blues
TTITLE0=Open Road
TTITLE1=I've Got Love If You Want It
TTITLE2=Falling Leaves
TTITLE3=I'm Tore Down
TTITLE4=Help Me
TTITLE5=Pass the Peas
TTITLE6=She Moves Me
TTITLE7=Going to Brownsville
TTITLE8=Everyday I Have the Blues
TTITLE9=Just One More Time
TTITLE10=Chittlins Con Carne
TTITLE11=Let Me In
EXTD=
EXTT0=
EXTT1=
EXTT2=
EXTT3=
EXTT4=
EXTT5=
EXTT6=
EXTT7=
EXTT8=
EXTT9=
EXTT10=
EXTT11=
PLAYORDER=
